<?xml version="1.0" encoding="utf-8"?>
<!-- Generator: Adobe Illustrator 24.0.0, SVG Export Plug-In . SVG Version: 6.00 Build 0)  -->
<svg version="1.1" id="Layer_1" xmlns="http://www.w3.org/2000/svg" xmlns:xlink="http://www.w3.org/1999/xlink" x="0px" y="0px"
	 viewBox="0 0 493 314" style="enable-background:new 0 0 493 314;" xml:space="preserve">
<style type="text/css">
	.st0{fill:#1B1845;}
	.st1{fill:#02EDB3;}
</style>
<g>
	<path class="st0" d="M257,0.1c77.26,0,154.53,0.03,231.79-0.1c3.42-0.01,4.75,0.67,4,4.09c-1.81,1.01-1.27,2.97-1.54,4.44
		c-6.89,38.61-13.65,77.23-20.46,115.85c-8.83,50.07-17.74,100.13-26.46,150.22c-2.28,13.07-5.24,26.04-6.49,39.28
		c-144.21,0-288.42-0.02-432.63,0.11c-4.24,0-5.87-0.9-4.98-5.11c1.85-0.97,1.34-2.94,1.6-4.4c6.54-36.64,12.95-73.31,19.41-109.97
		c8.83-50.07,17.7-100.14,26.5-150.22c2.59-14.72,4.97-29.47,7.45-44.21c39.3,0,78.6,0,117.9,0c-0.04,0.66-0.02,1.34-0.13,1.99
		c-8.86,50.08-17.72,100.16-26.65,150.23c-0.6,3.39-0.45,4.84,3.84,4.8c25.13-0.24,50.27-0.2,75.4-0.03c3.4,0.02,4.35-1,4.91-4.25
		c6.41-37.01,13.03-73.98,19.53-110.98C252.41,27.95,254.67,14.02,257,0.1z M333.39,235.64c24.47,0,48.94-0.12,73.4,0.11
		c4.32,0.04,5.5-1.39,6.2-5.45c5.32-31.13,10.93-62.22,16.43-93.32c5.44-30.78,10.89-61.55,16.22-92.34
		c0.38-2.21,2.58-5.54-2.95-5.52c-49.77,0.16-99.54,0.11-149.31,0.04c-2.91,0-4.01,0.88-4.46,3.83c-1.51,9.86-3.36,19.66-5.08,29.49
		c-1.1,6.26-1.1,6.27,5.03,6.27c35.45,0,70.91,0.01,106.36-0.01c2.74,0,5.32-0.5,4.51,3.99c-6.59,36.48-13.07,72.98-19.4,109.5
		c-0.56,3.22-1.75,3.95-4.77,3.94c-23.14-0.11-46.27-0.19-69.41,0.05c-4.65,0.05-4.68-1.89-4.04-5.32
		c1.88-9.96,3.53-19.97,5.48-29.92c0.6-3.07,0-4.1-3.31-4.04c-10.48,0.19-20.97,0.21-31.46-0.01c-3.22-0.07-4.26,1.09-4.77,4.07
		c-3.97,23.27-7.94,46.54-12.27,69.74c-0.8,4.31,0.22,5,4.18,4.97C284.45,235.57,308.92,235.64,333.39,235.64z M131.63,235.64
		c24.64,0,49.28-0.07,73.91,0.08c3.5,0.02,4.97-0.91,5.5-4.5c1.49-10.03,3.1-20.06,5.24-29.96c0.96-4.46-0.11-5.25-4.37-5.23
		c-35.62,0.15-71.25-0.01-106.88,0.2c-4.74,0.03-5.47-1.31-4.7-5.62c8.77-49.1,17.36-98.23,26.13-147.33
		c0.55-3.07,0.29-4.17-3.12-4.12c-10.65,0.17-21.31,0.17-31.96,0c-3.09-0.05-3.81,1.25-4.29,4.02
		c-10.94,62.56-21.92,125.11-33.12,187.63c-0.79,4.43,0.4,4.94,4.24,4.92C82.69,235.58,107.16,235.64,131.63,235.64z"/>
	<path class="st1" d="M333.39,235.64c-24.47,0-48.94-0.07-73.4,0.07c-3.96,0.02-4.99-0.66-4.18-4.97
		c4.33-23.2,8.3-46.47,12.27-69.74c0.51-2.99,1.56-4.14,4.77-4.07c10.48,0.22,20.97,0.2,31.46,0.01c3.31-0.06,3.92,0.97,3.31,4.04
		c-1.95,9.95-3.61,19.96-5.48,29.92c-0.64,3.42-0.61,5.36,4.04,5.32c23.13-0.24,46.27-0.16,69.41-0.05
		c3.01,0.01,4.21-0.72,4.77-3.94c6.33-36.53,12.81-73.02,19.4-109.5c0.81-4.49-1.77-3.99-4.51-3.99
		c-35.45,0.02-70.91,0.01-106.36,0.01c-6.12,0-6.12-0.01-5.03-6.27c1.72-9.82,3.57-19.63,5.08-29.49c0.45-2.95,1.55-3.84,4.46-3.83
		c49.77,0.07,99.54,0.12,149.31-0.04c5.54-0.02,3.34,3.31,2.95,5.52c-5.33,30.79-10.78,61.57-16.22,92.34
		c-5.5,31.1-11.11,62.18-16.43,93.32c-0.69,4.06-1.88,5.49-6.2,5.45C382.33,235.53,357.86,235.64,333.39,235.64z"/>
	<path class="st1" d="M131.63,235.64c-24.47,0-48.94-0.06-73.42,0.07c-3.84,0.02-5.03-0.48-4.24-4.92
		c11.2-62.51,22.18-125.07,33.12-187.63c0.48-2.76,1.2-4.06,4.29-4.02c10.65,0.17,21.31,0.17,31.96,0c3.41-0.05,3.67,1.05,3.12,4.12
		c-8.77,49.1-17.36,98.23-26.13,147.33c-0.77,4.31-0.03,5.65,4.7,5.62c35.62-0.21,71.25-0.05,106.88-0.2
		c4.27-0.02,5.33,0.77,4.37,5.23c-2.14,9.9-3.75,19.93-5.24,29.96c-0.53,3.59-2,4.52-5.5,4.5
		C180.91,235.57,156.27,235.64,131.63,235.64z"/>
</g>
</svg>
